<?xml version="1.0" encoding="UTF-8" standalone="no"?>
<svg
   xmlns:dc="http://purl.org/dc/elements/1.1/"
   xmlns:cc="http://creativecommons.org/ns#"
   xmlns:rdf="http://www.w3.org/1999/02/22-rdf-syntax-ns#"
   xmlns:svg="http://www.w3.org/2000/svg"
   xmlns="http://www.w3.org/2000/svg"
   xmlns:sodipodi="http://sodipodi.sourceforge.net/DTD/sodipodi-0.dtd"
   xmlns:inkscape="http://www.inkscape.org/namespaces/inkscape"
   width="400mm"
   height="200mm"
   viewBox="0 0 400 200"
   version="1.1"
   id="svg8"
   inkscape:version="1.0.2 (e86c870879, 2021-01-15, custom)"
   sodipodi:docname="RootCNC.svg">
  <defs
     id="defs2" />
  <sodipodi:namedview
     id="base"
     pagecolor="#ffffff"
     bordercolor="#666666"
     borderopacity="1.0"
     inkscape:pageopacity="0.0"
     inkscape:pageshadow="2"
     inkscape:zoom="0.175"
     inkscape:cx="764.97935"
     inkscape:cy="520.82416"
     inkscape:document-units="mm"
     inkscape:current-layer="layer1"
     inkscape:document-rotation="0"
     showgrid="false"
     width="298mm"
     inkscape:window-width="1267"
     inkscape:window-height="1040"
     inkscape:window-x="2076"
     inkscape:window-y="0"
     inkscape:window-maximized="0" />
  <metadata
     id="metadata5">
    <rdf:RDF>
      <cc:Work
         rdf:about="">
        <dc:format>image/svg+xml</dc:format>
        <dc:type
           rdf:resource="http://purl.org/dc/dcmitype/StillImage" />
        <dc:title></dc:title>
      </cc:Work>
    </rdf:RDF>
  </metadata>
  <g
     inkscape:label="Layer 1"
     inkscape:groupmode="layer"
     id="layer1">
    <g
       aria-label="Root Cnc"
       id="text835"
       style="font-style:normal;font-weight:normal;font-size:100px;line-height:1.25;font-family:sans-serif;fill:#000000;fill-opacity:1;stroke:none;stroke-width:0.264583"
       transform="translate(2.1166667)">
      <path
         d="m 84.391462,93.462143 10.302735,24.462887 q 2.001953,4.73633 5.224609,4.73633 l 1.953124,-0.0488 h 20.41016 q 6.73828,0 6.73828,4.58985 0,3.36914 -2.34375,5.22461 -2.34375,1.85547 -6.68945,1.85547 H 97.4774 q -9.277344,0 -12.890625,-8.78907 L 70.475447,91.509018 63.932478,107.6223 q -4.6875,11.57226 -6.689453,15.625 -1.953125,4.10156 -4.541016,7.56836 -9.326172,12.59765 -23.486328,12.59765 -10.302734,0 -16.699219,-6.44531 -6.396484,-6.44531 -6.396484,-16.89453 0,-13.62305 10.058594,-23.974608 5.419922,-5.517578 13.574218,-8.886719 8.154297,-3.417969 16.16211,-3.417969 3.808594,0 6.152344,1.757813 2.392578,1.708984 2.392578,4.492187 0,3.027344 -2.539063,4.833985 -1.464844,1.02539 -5.664062,1.464843 -9.765625,0.878907 -15.673828,4.443358 -4.980469,3.02735 -7.861329,7.8125 -2.880859,4.78516 -2.880859,10.00977 0,5.51758 2.783203,8.6914 2.832031,3.22266 7.666016,3.22266 5.957031,0 10.302734,-5.0293 4.394531,-5.02929 9.619141,-17.87109 L 67.106306,65.971909 h -5.029297 q -6.738281,0 -6.738281,-4.638672 0,-3.369141 2.34375,-5.175782 2.34375,-1.855468 6.640625,-1.855468 H 80.53404 q 6.347657,0 9.277344,0.732422 2.978516,0.732421 5.712891,3.027343 5.664065,4.736328 5.664065,13.330078 0,7.8125 -4.638675,13.916016 -4.589843,6.054688 -12.158203,8.154297 z m -10.986328,-9.179688 1.416016,-0.09766 q 5.566406,-0.341797 8.300781,-2.148437 5.273438,-3.466797 5.273438,-9.326172 0,-6.738281 -6.445313,-6.738281 h -1.074219 z"
         style="font-style:normal;font-variant:normal;font-weight:normal;font-stretch:normal;font-size:100px;font-family:'Harlow Solid Italic';-inkscape-font-specification:'Harlow Solid Italic, ';stroke-width:0.264583"
         id="path837" />
      <path
         d="m 126.09068,82.915268 q 7.08008,0 11.62109,4.492187 4.58985,4.492188 4.58985,11.425782 0,5.224613 -2.39258,10.400393 -2.39258,5.12695 -6.20117,8.20312 -2.53906,2.00196 -5.27344,2.78321 -2.68555,0.73242 -7.56836,0.73242 -7.95898,0 -10.74219,-1.9043 -6.54296,-4.49219 -6.54296,-13.28125 0,-9.277343 6.68945,-16.064453 6.68945,-6.787109 15.82031,-6.787109 z m -1.17187,10.400391 q -3.61329,0 -6.5918,3.564453 -2.97852,3.564448 -2.97852,7.861328 0,5.66406 6.34766,5.66406 3.71094,0 5.71289,-2.29492 3.32031,-3.75977 3.32031,-8.59375 0,-2.783203 -1.61133,-4.492187 -1.61132,-1.708984 -4.19921,-1.708984 z"
         style="font-style:normal;font-variant:normal;font-weight:normal;font-stretch:normal;font-size:100px;font-family:'Harlow Solid Italic';-inkscape-font-specification:'Harlow Solid Italic, ';stroke-width:0.264583"
         id="path839" />
      <path
         d="m 167.49693,82.915268 q 7.08008,0 11.62109,4.492187 4.58985,4.492188 4.58985,11.425782 0,5.224613 -2.39258,10.400393 -2.39258,5.12695 -6.20117,8.20312 -2.53906,2.00196 -5.27344,2.78321 -2.68555,0.73242 -7.56836,0.73242 -7.95898,0 -10.74219,-1.9043 -6.54296,-4.49219 -6.54296,-13.28125 0,-9.277343 6.68945,-16.064453 6.68945,-6.787109 15.82031,-6.787109 z m -1.17187,10.400391 q -3.61329,0 -6.5918,3.564453 -2.97852,3.564448 -2.97852,7.861328 0,5.66406 6.34766,5.66406 3.71094,0 5.71289,-2.29492 3.32031,-3.75977 3.32031,-8.59375 0,-2.783203 -1.61133,-4.492187 -1.61132,-1.708984 -4.19921,-1.708984 z"
         style="font-style:normal;font-variant:normal;font-weight:normal;font-stretch:normal;font-size:100px;font-family:'Harlow Solid Italic';-inkscape-font-specification:'Harlow Solid Italic, ';stroke-width:0.264583"
         id="path841" />
      <path
         d="m 210.70982,83.598862 h 1.51367 q 6.20118,0 6.20118,4.345703 0,2.978515 -2.19727,4.638672 -2.19727,1.660156 -6.05469,1.660156 h -3.56445 l -6.54297,16.064457 h 5.46875 q 6.20117,0 6.20117,4.3457 0,2.97851 -2.19726,4.63867 -2.14844,1.66016 -6.05469,1.66016 h -8.74024 q -3.71093,0 -5.9082,-1.70899 -2.14844,-1.70898 -2.14844,-4.63867 0,-1.80664 0.87891,-4.00391 l 0.92773,-2.14843 5.76172,-14.208987 h -0.73242 q -5.46875,0 -5.46875,-4.248047 0,-3.027344 2.14844,-4.6875 2.19726,-1.708984 6.10351,-1.708984 h 2.2461 l 2.58789,-6.396485 0.53711,-1.318359 q 2.29492,-5.419922 7.22656,-5.419922 2.00195,0 3.41797,1.367188 1.46484,1.318359 1.46484,3.222656 0,1.855469 -1.26953,4.6875 z"
         style="font-style:normal;font-variant:normal;font-weight:normal;font-stretch:normal;font-size:100px;font-family:'Harlow Solid Italic';-inkscape-font-specification:'Harlow Solid Italic, ';stroke-width:0.264583"
         id="path843" />
      <path
         d="m 266.17857,87.602768 q -6.5918,11.71875 -6.5918,21.728512 0,7.12891 3.22266,10.20508 3.27149,3.07617 10.83984,3.07617 h 27.14844 q 6.73828,0 6.73828,4.58985 0,3.32031 -2.39257,5.17578 -2.34375,1.9043 -6.64063,1.9043 h -28.32031 q -7.08008,0 -11.32813,-1.95313 -5.9082,-2.73437 -9.27734,-8.44727 -3.36914,-5.66406 -3.36914,-12.93945 0,-9.76562 5.95703,-23.339842 h -2.73438 -1.26953 q -5.46875,0 -5.46875,-4.6875 0,-2.929688 2.2461,-4.931641 2.24609,-2.050781 5.46875,-2.050781 h 1.31836 7.08007 q 4.39454,-7.324219 11.81641,-14.111328 9.47266,-8.544922 20.45899,-8.544922 7.22656,0 11.96289,4.443359 4.73632,4.44336 4.73632,11.328125 0,9.814454 -9.13086,15.039063 -6.20117,3.515625 -19.72656,3.515625 z m 7.27539,-11.669922 h 9.47266 q 12.1582,0 12.1582,-6.494141 0,-2.050781 -1.61133,-3.320312 -1.5625,-1.318359 -4.0039,-1.318359 -3.75977,0 -8.10547,3.027343 -4.3457,3.027344 -7.91016,8.105469 z"
         style="font-style:normal;font-variant:normal;font-weight:normal;font-stretch:normal;font-size:100px;font-family:'Harlow Solid Italic';-inkscape-font-specification:'Harlow Solid Italic, ';stroke-width:0.264583"
         id="path845" />
      <path
         d="m 335.17271,110.30785 h 5.85938 q 6.20117,0 6.20117,4.3457 0,2.97851 -2.19727,4.63867 -2.19726,1.66016 -6.05468,1.66016 h -10.20508 q -2.97852,0 -5.0293,-1.80664 -2.00195,-1.80664 -2.00195,-4.54102 0,-1.66016 1.36719,-4.98047 l 4.29687,-10.644529 q 0.68359,-1.660156 0.73242,-2.685547 0.0488,-1.171875 -0.97656,-2.001953 -0.97656,-0.830078 -2.53906,-0.830078 -5.0293,0 -8.10547,7.568357 l -5.76172,14.16016 q -2.58789,6.44531 -7.71484,6.44531 -2.09961,0 -3.56446,-1.26953 -1.46484,-1.26953 -1.46484,-3.125 0,-1.36719 0.78125,-3.27148 l 0.53711,-1.31836 9.86328,-24.31641 q 1.9043,-4.736328 6.49414,-4.736328 3.75977,0 5.37109,3.320312 5.22461,-4.003906 9.96094,-4.003906 4.58985,0 7.56836,2.636719 2.97852,2.636718 2.97852,6.689453 0,2.246094 -1.07422,4.93164 z"
         style="font-style:normal;font-variant:normal;font-weight:normal;font-stretch:normal;font-size:100px;font-family:'Harlow Solid Italic';-inkscape-font-specification:'Harlow Solid Italic, ';stroke-width:0.264583"
         id="path847" />
      <path
         d="m 377.01842,120.95238 h -14.16016 q -6.10352,0 -9.96094,-4.29688 -3.80859,-4.29687 -3.80859,-11.13281 0,-9.13086 6.29883,-15.869141 6.29882,-6.738281 14.79492,-6.738281 5.76172,0 9.375,3.222656 3.61328,3.222656 3.61328,8.398438 0,3.613281 -1.80664,5.957028 -1.80664,2.29492 -4.63867,2.29492 -4.49219,0 -4.49219,-4.199214 0,-0.634766 0,-1.074219 0.0488,-0.537109 0.0488,-1.02539 0,-3.417969 -3.36914,-3.417969 -3.17383,0 -5.81055,3.369141 -2.58789,3.36914 -2.58789,7.519531 0,3.4668 2.09961,4.93164 2.14844,1.41602 7.22656,1.41602 h 9.22852 q 6.20117,0 6.20117,4.3457 0,2.92969 -2.2461,4.63867 -2.19726,1.66016 -6.00585,1.66016 z"
         style="font-style:normal;font-variant:normal;font-weight:normal;font-stretch:normal;font-size:100px;font-family:'Harlow Solid Italic';-inkscape-font-specification:'Harlow Solid Italic, ';stroke-width:0.264583"
         id="path849" />
    </g>
  </g>
</svg>
